<mxfile host="drawio-plugin" modified="2021-11-09T10:51:45.151Z" agent="5.0 (Macintosh; Intel Mac OS X 12_0_1) AppleWebKit/537.36 (KHTML, like Gecko) Chrome/89.0.4389.114 Safari/537.36" version="14.7.4" etag="ASfagxy_zhBBHwBk6Nvm" type="embed"><diagram id="Vbwb_EZ3WjNkRHcQmv2P" name="Page-1"><mxGraphModel dx="1144" dy="760" grid="1" gridSize="10" guides="1" tooltips="1" connect="1" arrows="1" fold="1" page="1" pageScale="1" pageWidth="850" pageHeight="1100" math="0" shadow="0"><root><mxCell id="0"/><mxCell id="1" parent="0"/><mxCell id="13" value="" style="ellipse;whiteSpace=wrap;html=1;aspect=fixed;" vertex="1" parent="1"><mxGeometry x="28.75" y="90" width="740" height="740" as="geometry"/></mxCell><mxCell id="3" value="&lt;font style=&quot;font-size: 26px&quot;&gt;CORE&lt;/font&gt;" style="ellipse;whiteSpace=wrap;html=1;aspect=fixed;" vertex="1" parent="1"><mxGeometry x="170" y="200" width="460" height="460" as="geometry"/></mxCell><mxCell id="4" value="Core" style="rounded=1;whiteSpace=wrap;html=1;" vertex="1" parent="1"><mxGeometry x="267.5" y="250" width="265" height="120" as="geometry"/></mxCell><mxCell id="5" value="Domain" style="rounded=1;whiteSpace=wrap;html=1;" vertex="1" parent="1"><mxGeometry x="267.5" y="470" width="262.5" height="110" as="geometry"/></mxCell><mxCell id="7" value="IService" style="ellipse;whiteSpace=wrap;html=1;" vertex="1" parent="1"><mxGeometry x="290" y="310" width="100" height="50" as="geometry"/></mxCell><mxCell id="8" value="Models" style="ellipse;whiteSpace=wrap;html=1;" vertex="1" parent="1"><mxGeometry x="418" y="310" width="105" height="50" as="geometry"/></mxCell><mxCell id="9" value="Service" style="ellipse;whiteSpace=wrap;html=1;" vertex="1" parent="1"><mxGeometry x="290" y="525" width="100" height="50" as="geometry"/></mxCell><mxCell id="10" value="IRepository" style="ellipse;whiteSpace=wrap;html=1;" vertex="1" parent="1"><mxGeometry x="418" y="525" width="100" height="50" as="geometry"/></mxCell><mxCell id="12" value="Use" style="endArrow=open;endSize=12;dashed=1;html=1;" edge="1" parent="1" source="9"><mxGeometry width="160" relative="1" as="geometry"><mxPoint x="340" y="365" as="sourcePoint"/><mxPoint x="340" y="365" as="targetPoint"/></mxGeometry></mxCell><mxCell id="14" value="Infrastructure" style="rounded=1;whiteSpace=wrap;html=1;" vertex="1" parent="1"><mxGeometry x="240" y="670" width="310" height="110" as="geometry"/></mxCell><mxCell id="15" value="Presentation" style="rounded=1;whiteSpace=wrap;html=1;" vertex="1" parent="1"><mxGeometry x="260" y="130" width="290" height="60" as="geometry"/></mxCell><mxCell id="16" value="Test" style="rounded=1;whiteSpace=wrap;html=1;" vertex="1" parent="1"><mxGeometry x="40" y="410" width="130" height="90" as="geometry"/></mxCell></root></mxGraphModel></diagram></mxfile>